#N canvas 0 0 450 300 10;
#X obj 50 50 inlet~;
#X obj 50 100 delwrite~ $0-gdel 2000;
#X obj 150 50 phasor~ 0.2;
#X obj 150 100 *~ 2000;
#X obj 150 150 vd~ $0-gdel;
#X obj 50 150 +~;
#X obj 50 200 outlet~;
#X connect 0 0 1 0;
#X connect 0 0 5 0;
#X connect 2 0 3 0;
#X connect 3 0 4 0;
#X connect 4 0 5 1;
#X connect 5 0 6 0;
