#N canvas 100 100 450 300 10;
#X obj 100 50 noise~;
#X obj 100 100 lop~ 800;
#X floatatom 180 70 5 0 0 0 - - -;
#X obj 180 90 sig~;
#X obj 100 150 *~ 0.2;
#X obj 100 200 dac~;
#X connect 0 0 1 0;
#X connect 1 0 4 0;
#X connect 2 0 3 0;
#X connect 3 0 1 1;
#X connect 4 0 5 0;
#X connect 4 0 5 1;
