#N canvas 100 100 500 400 10;
#X obj 50 50 loadbang;
#X obj 50 80 metro 500;
#X obj 50 110 random 12;
#X obj 50 140 + 60;
#X obj 50 170 mtof;
#X obj 50 200 osc~;
#X obj 50 230 *~ 0.2;
#X obj 50 260 dac~;
#X connect 0 0 1 0;
#X connect 1 0 2 0;
#X connect 2 0 3 0;
#X connect 3 0 4 0;
#X connect 4 0 5 0;
#X connect 5 0 6 0;
#X connect 6 0 7 0;
#X connect 6 0 7 1;
